<svg xmlns="http://www.w3.org/2000/svg" class="ionicon" viewBox="0 0 25 25" width="25" height="25"><path d="M12.5 1.563c-6.04 0 -10.938 5.024 -10.938 11.216 0 4.956 3.135 9.155 7.481 10.64a0.85 0.85 0 0 0 0.185 0.019c0.405 0 0.561 -0.298 0.561 -0.557 0 -0.269 -0.01 -0.972 -0.015 -1.909a5 5 0 0 1 -1.103 0.132c-2.104 0 -2.583 -1.636 -2.583 -1.636 -0.498 -1.294 -1.216 -1.641 -1.216 -1.641 -0.952 -0.669 -0.005 -0.689 0.068 -0.689h0.005c1.099 0.098 1.675 1.162 1.675 1.162 0.547 0.957 1.279 1.226 1.933 1.226a3.075 3.075 0 0 0 1.25 -0.293c0.098 -0.723 0.381 -1.216 0.693 -1.499 -2.427 -0.283 -4.981 -1.245 -4.981 -5.542 0 -1.226 0.425 -2.227 1.123 -3.008 -0.112 -0.283 -0.488 -1.426 0.107 -2.969a0.9 0.9 0 0 1 0.244 -0.025c0.396 0 1.289 0.151 2.764 1.177a10.165 10.165 0 0 1 5.479 0c1.474 -1.026 2.368 -1.177 2.764 -1.177a0.9 0.9 0 0 1 0.244 0.025c0.596 1.543 0.22 2.686 0.107 2.969 0.698 0.786 1.123 1.787 1.123 3.008 0 4.307 -2.558 5.254 -4.995 5.532 0.391 0.347 0.742 1.03 0.742 2.075 0 1.499 -0.015 2.71 -0.015 3.076 0 0.264 0.151 0.561 0.557 0.561a0.95 0.95 0 0 0 0.195 -0.019C20.308 21.933 23.438 17.73 23.438 12.778 23.438 6.587 18.54 1.563 12.5 1.563"/></svg>