<svg xmlns="http://www.w3.org/2000/svg" class="ionicon" viewBox="0 0 25 25" width="25" height="25"><path d="M21.688 1.563H3.432C2.434 1.563 1.563 2.28 1.563 3.266v18.297C1.563 22.554 2.434 23.438 3.432 23.438h18.251c1.003 0 1.755 -0.889 1.755 -1.875V3.266C23.443 2.28 22.686 1.563 21.688 1.563m-13.345 18.234h-3.134V10.053h3.134zM6.885 8.571h-0.022c-1.003 0 -1.652 -0.747 -1.652 -1.681 0 -0.952 0.667 -1.681 1.692 -1.681s1.653 0.724 1.675 1.681c0 0.935 -0.65 1.681 -1.692 1.681m12.912 11.225h-3.134V14.469c0 -1.276 -0.456 -2.148 -1.59 -2.148 -0.866 0 -1.379 0.586 -1.607 1.157 -0.085 0.205 -0.108 0.484 -0.108 0.77v5.55h-3.134V10.053h3.134v1.356c0.456 -0.649 1.168 -1.584 2.826 -1.584 2.057 0 3.613 1.356 3.613 4.279z"/></svg>